<svg width="0" height="0" class="hidden">
  <symbol xmlns="http://www.w3.org/2000/svg" viewBox="0 0 50 50" id="icons8-twitterx">
    <path d="M 11 4 C 7.134 4 4 7.134 4 11 L 4 39 C 4 42.866 7.134 46 11 46 L 39 46 C 42.866 46 46 42.866 46 39 L 46 11 C 46 7.134 42.866 4 39 4 L 11 4 z M 13.085938 13 L 21.023438 13 L 26.660156 21.009766 L 33.5 13 L 36 13 L 27.789062 22.613281 L 37.914062 37 L 29.978516 37 L 23.4375 27.707031 L 15.5 37 L 13 37 L 22.308594 26.103516 L 13.085938 13 z M 16.914062 15 L 31.021484 35 L 34.085938 35 L 19.978516 15 L 16.914062 15 z"></path>
  </symbol>

  <symbol  xmlns="http://www.w3.org/2000/svg" viewBox="0 0 24 24" id="triangle-fill-svgrepo-com">
    <g id="SVGRepo_bgCarrier" stroke-width="0"></g>
    <g id="SVGRepo_tracerCarrier" stroke-linecap="round" stroke-linejoin="round"></g>
    <g id="SVGRepo_iconCarrier">
      <path d="M10.285 3.85831C11.0618 2.56363 12.9382 2.56363 13.715 3.85831L22.1826 17.971C22.9824 19.3041 22.0222 21 20.4676 21H3.53238C1.97779 21 1.01757 19.3041 1.81739 17.971L10.285 3.85831Z" ></path>
    </g>
  </symbol>

  <symbol fill="none" xmlns="http://www.w3.org/2000/svg" stroke="#0" viewBox="0 0 24 24" id="triangle-svgrepo-com">
    <g id="SVGRepo_bgCarrier" stroke-width="0"></g>
    <g id="SVGRepo_tracerCarrier" stroke-linecap="round" stroke-linejoin="round"></g>
    <g id="SVGRepo_iconCarrier">
      <g id="Shape / Triangle">
        <path id="Vector" d="M4.37891 15.1999C3.46947 16.775 3.01489 17.5634 3.08281 18.2097C3.14206 18.7734 3.43792 19.2851 3.89648 19.6182C4.42204 20.0001 5.3309 20.0001 7.14853 20.0001H16.8515C18.6691 20.0001 19.5778 20.0001 20.1034 19.6182C20.5619 19.2851 20.8579 18.7734 20.9172 18.2097C20.9851 17.5634 20.5307 16.775 19.6212 15.1999L14.7715 6.79986C13.8621 5.22468 13.4071 4.43722 12.8135 4.17291C12.2957 3.94236 11.704 3.94236 11.1862 4.17291C10.5928 4.43711 10.1381 5.22458 9.22946 6.79845L4.37891 15.1999Z" stroke-width="2" stroke-linecap="round" stroke-linejoin="round"></path>
      </g>
    </g>
  </symbol>

  <symbol fill="none" xmlns="http://www.w3.org/2000/svg" viewBox="0 0 24 21" id="Arrow1">
    <path d="M23.3024 11.4174C23.8388 10.8811 23.8388 10.0115 23.3024 9.4752L14.5626 0.735356C14.0263 0.199036 13.1567 0.199036 12.6204 0.735356C12.0841 1.27168 12.0841 2.14122 12.6204 2.67754L20.3892 10.4463L12.6204 18.215C12.0841 18.7514 12.0841 19.6209 12.6204 20.1572C13.1567 20.6935 14.0263 20.6935 14.5626 20.1572L23.3024 11.4174ZM0.187012 11.8196H22.3313V9.07296H0.187012V11.8196Z" fill="#2B2B2B"></path>
  </symbol>

  <symbol xmlns="http://www.w3.org/2000/svg" xmlns:xlink="http://www.w3.org/1999/xlink" version="1.1" id="linkedin" x="0px" y="0px" xml:space="preserve" viewBox="0 0 24 24">
    <g>
      <path id="Path_2525" d="M23.002,21.584h0.227l-0.435-0.658l0,0c0.266,0,0.407-0.169,0.409-0.376c0-0.008,0-0.017-0.001-0.025   c0-0.282-0.17-0.417-0.519-0.417h-0.564v1.476h0.212v-0.643h0.261L23.002,21.584z M22.577,20.774h-0.246v-0.499h0.312   c0.161,0,0.345,0.026,0.345,0.237c0,0.242-0.186,0.262-0.412,0.262"></path>
      <path id="Path_2520" d="M17.291,19.073h-3.007v-4.709c0-1.123-0.02-2.568-1.564-2.568c-1.566,0-1.806,1.223-1.806,2.487v4.79H7.908   V9.389h2.887v1.323h0.04c0.589-1.006,1.683-1.607,2.848-1.564c3.048,0,3.609,2.005,3.609,4.612L17.291,19.073z M4.515,8.065   c-0.964,0-1.745-0.781-1.745-1.745c0-0.964,0.781-1.745,1.745-1.745c0.964,0,1.745,0.781,1.745,1.745   C6.26,7.284,5.479,8.065,4.515,8.065L4.515,8.065 M6.018,19.073h-3.01V9.389h3.01V19.073z M18.79,1.783H1.497   C0.68,1.774,0.01,2.429,0,3.246V20.61c0.01,0.818,0.68,1.473,1.497,1.464H18.79c0.819,0.01,1.492-0.645,1.503-1.464V3.245   c-0.012-0.819-0.685-1.474-1.503-1.463"></path>
      <path id="Path_2526" d="M22.603,19.451c-0.764,0.007-1.378,0.633-1.37,1.397c0.007,0.764,0.633,1.378,1.397,1.37   c0.764-0.007,1.378-0.633,1.37-1.397c-0.007-0.754-0.617-1.363-1.37-1.37H22.603 M22.635,22.059   c-0.67,0.011-1.254-0.522-1.265-1.192c-0.011-0.67,0.523-1.222,1.193-1.233c0.67-0.011,1.222,0.523,1.233,1.193   c0,0.007,0,0.013,0,0.02C23.81,21.502,23.29,22.045,22.635,22.059h-0.031"></path>
    </g>
  </symbol>

  <symbol xmlns="http://www.w3.org/2000/svg" xmlns:xlink="http://www.w3.org/1999/xlink" version="1.1" id="facebook" x="0px" y="0px" xml:space="preserve" viewBox="0 0 24 24">
    <g>
      <path d="M24,12.073c0,5.989-4.394,10.954-10.13,11.855v-8.363h2.789l0.531-3.46H13.87V9.86c0-0.947,0.464-1.869,1.95-1.869h1.509   V5.045c0,0-1.37-0.234-2.679-0.234c-2.734,0-4.52,1.657-4.52,4.656v2.637H7.091v3.46h3.039v8.363C4.395,23.025,0,18.061,0,12.073   c0-6.627,5.373-12,12-12S24,5.445,24,12.073z"></path>
    </g>
  </symbol>

  <symbol xmlns="http://www.w3.org/2000/svg" xmlns:xlink="http://www.w3.org/1999/xlink" version="1.1" id="github" x="0px" y="0px" xml:space="preserve" viewBox="0 0 24 24">
    <g>
      <path d="M12,0.296c-6.627,0-12,5.372-12,12c0,5.302,3.438,9.8,8.206,11.387   c0.6,0.111,0.82-0.26,0.82-0.577c0-0.286-0.011-1.231-0.016-2.234c-3.338,0.726-4.043-1.416-4.043-1.416   C4.421,18.069,3.635,17.7,3.635,17.7c-1.089-0.745,0.082-0.729,0.082-0.729c1.205,0.085,1.839,1.237,1.839,1.237   c1.07,1.834,2.807,1.304,3.492,0.997C9.156,18.429,9.467,17.9,9.81,17.6c-2.665-0.303-5.467-1.332-5.467-5.93   c0-1.31,0.469-2.381,1.237-3.221C5.455,8.146,5.044,6.926,5.696,5.273c0,0,1.008-0.322,3.301,1.23   C9.954,6.237,10.98,6.104,12,6.099c1.02,0.005,2.047,0.138,3.006,0.404c2.29-1.553,3.297-1.23,3.297-1.23   c0.653,1.653,0.242,2.873,0.118,3.176c0.769,0.84,1.235,1.911,1.235,3.221c0,4.609-2.807,5.624-5.479,5.921   c0.43,0.372,0.814,1.103,0.814,2.222c0,1.606-0.014,2.898-0.014,3.293c0,0.319,0.216,0.694,0.824,0.576   c4.766-1.589,8.2-6.085,8.2-11.385C24,5.669,18.627,0.296,12,0.296z"></path>
      <path d="M4.545,17.526c-0.026,0.06-0.12,0.078-0.206,0.037c-0.087-0.039-0.136-0.121-0.108-0.18   c0.026-0.061,0.12-0.078,0.207-0.037C4.525,17.384,4.575,17.466,4.545,17.526L4.545,17.526z"></path>
      <path d="M5.031,18.068c-0.057,0.053-0.169,0.028-0.245-0.055c-0.079-0.084-0.093-0.196-0.035-0.249   c0.059-0.053,0.167-0.028,0.246,0.056C5.076,17.903,5.091,18.014,5.031,18.068L5.031,18.068z"></path>
      <path d="M5.504,18.759c-0.074,0.051-0.194,0.003-0.268-0.103c-0.074-0.107-0.074-0.235,0.002-0.286   c0.074-0.051,0.193-0.005,0.268,0.101C5.579,18.579,5.579,18.707,5.504,18.759L5.504,18.759z"></path>
      <path d="M6.152,19.427c-0.066,0.073-0.206,0.053-0.308-0.046c-0.105-0.097-0.134-0.234-0.068-0.307   c0.067-0.073,0.208-0.052,0.311,0.046C6.191,19.217,6.222,19.355,6.152,19.427L6.152,19.427z"></path>
      <path d="M7.047,19.814c-0.029,0.094-0.164,0.137-0.3,0.097C6.611,19.87,6.522,19.76,6.55,19.665   c0.028-0.095,0.164-0.139,0.301-0.096C6.986,19.609,7.075,19.719,7.047,19.814L7.047,19.814z"></path>
      <path d="M8.029,19.886c0.003,0.099-0.112,0.181-0.255,0.183c-0.143,0.003-0.26-0.077-0.261-0.174c0-0.1,0.113-0.181,0.256-0.184   C7.912,19.708,8.029,19.788,8.029,19.886L8.029,19.886z"></path>
      <path d="M8.943,19.731c0.017,0.096-0.082,0.196-0.224,0.222c-0.139,0.026-0.268-0.034-0.286-0.13   c-0.017-0.099,0.084-0.198,0.223-0.224C8.797,19.574,8.925,19.632,8.943,19.731L8.943,19.731z"></path>
    </g>
  </symbol>

  <symbol xmlns="http://www.w3.org/2000/svg" viewBox="0 0 50 50" id="icons8-email">
    <path d="M 14 4 C 8.4886661 4 4 8.4886661 4 14 L 4 36 C 4 41.511334 8.4886661 46 14 46 L 36 46 C 41.511334 46 46 41.511334 46 36 L 46 14 C 46 8.4886661 41.511334 4 36 4 L 14 4 z M 14 6 L 36 6 C 40.430666 6 44 9.5693339 44 14 L 44 36 C 44 40.430666 40.430666 44 36 44 L 14 44 C 9.5693339 44 6 40.430666 6 36 L 6 14 C 6 9.5693339 9.5693339 6 14 6 z M 13 15 C 11.35503 15 10 16.35503 10 18 L 10 32 C 10 33.64497 11.35503 35 13 35 L 37 35 C 38.64497 35 40 33.64497 40 32 L 40 18 C 40 16.35503 38.64497 15 37 15 L 13 15 z M 13.414062 17 L 36.583984 17 L 27.677734 25.892578 C 26.18494 27.382984 23.796834 27.382819 22.304688 25.890625 L 13.414062 17 z M 38 18.412109 L 38 31.587891 L 31.402344 25 L 38 18.412109 z M 12 18.414062 L 18.585938 25 L 12 31.585938 L 12 18.414062 z M 29.988281 26.412109 L 36.585938 33 L 13.414062 33 L 20 26.414062 L 20.890625 27.304688 C 23.146478 29.56054 26.832638 29.562194 29.089844 27.308594 L 29.988281 26.412109 z"></path>
  </symbol>

  <symbol xmlns="http://www.w3.org/2000/svg" viewBox="0 0 50 50" id="icons8-phone">
    <path d="M 14 3.9902344 C 8.4886661 3.9902344 4 8.4789008 4 13.990234 L 4 35.990234 C 4 41.501568 8.4886661 45.990234 14 45.990234 L 36 45.990234 C 41.511334 45.990234 46 41.501568 46 35.990234 L 46 13.990234 C 46 8.4789008 41.511334 3.9902344 36 3.9902344 L 14 3.9902344 z M 14 5.9902344 L 36 5.9902344 C 40.430666 5.9902344 44 9.5595687 44 13.990234 L 44 35.990234 C 44 40.4209 40.430666 43.990234 36 43.990234 L 14 43.990234 C 9.5693339 43.990234 6 40.4209 6 35.990234 L 6 13.990234 C 6 9.5595687 9.5693339 5.9902344 14 5.9902344 z M 18.048828 11.035156 C 16.003504 10.946776 14.45113 11.723922 13.474609 12.658203 C 12.986349 13.125343 12.633832 13.625179 12.392578 14.091797 C 12.151324 14.558415 11.998047 14.943108 11.998047 15.443359 C 11.998047 15.398799 11.987059 15.632684 11.980469 15.904297 C 11.973869 16.17591 11.97507 16.542045 12 16.984375 C 12.04996 17.869036 12.199897 19.065677 12.597656 20.484375 C 13.393174 23.321771 15.184446 27.043821 19.070312 30.929688 C 22.95618 34.815554 26.678014 36.606575 29.515625 37.402344 C 30.93443 37.800228 32.130881 37.949937 33.015625 38 C 33.457997 38.02503 33.822105 38.026091 34.09375 38.019531 C 34.365395 38.012931 34.601049 38.001953 34.556641 38.001953 C 35.056892 38.001953 35.441585 37.848676 35.908203 37.607422 C 36.374821 37.366168 36.874657 37.013651 37.341797 36.525391 C 38.276078 35.54887 39.053222 33.996496 38.964844 31.951172 C 38.922907 30.975693 38.381316 30.111858 37.582031 29.599609 C 36.96435 29.203814 36.005458 28.589415 34.753906 27.789062 C 33.301811 26.861299 31.44451 26.795029 29.929688 27.625 L 30.015625 27.582031 L 28.837891 28.087891 L 28.751953 28.148438 C 28.465693 28.349428 28.111154 28.386664 27.789062 28.251953 C 26.886813 27.874649 25.480985 27.133329 24.173828 25.826172 C 22.866671 24.519015 22.125351 23.113186 21.748047 22.210938 C 21.613336 21.888845 21.650568 21.534307 21.851562 21.248047 L 21.912109 21.162109 L 22.417969 19.984375 L 22.375 20.070312 C 23.204764 18.555868 23.140248 16.698619 22.210938 15.246094 C 21.410584 13.994542 20.796186 13.03565 20.400391 12.417969 C 19.888142 11.618684 19.02431 11.077096 18.048828 11.035156 z M 17.962891 13.033203 C 18.243409 13.045263 18.533045 13.209378 18.716797 13.496094 C 19.113001 14.114413 19.727696 15.07377 20.527344 16.324219 C 21.058033 17.153694 21.09533 18.243821 20.621094 19.109375 L 20.597656 19.152344 L 20.115234 20.279297 L 20.214844 20.097656 C 19.623835 20.939396 19.505055 22.032514 19.902344 22.982422 C 20.35304 24.060173 21.214923 25.695392 22.759766 27.240234 C 24.304608 28.785077 25.939827 29.64696 27.017578 30.097656 C 27.967486 30.494945 29.060604 30.376165 29.902344 29.785156 L 29.720703 29.884766 L 30.847656 29.402344 L 30.890625 29.378906 C 31.755801 28.904877 32.845877 28.944375 33.675781 29.474609 L 33.675781 29.472656 C 34.92623 30.272304 35.885587 30.886999 36.503906 31.283203 C 36.790622 31.466955 36.954736 31.756591 36.966797 32.037109 C 37.032417 33.555785 36.504954 34.506599 35.896484 35.142578 C 35.59225 35.460568 35.262335 35.691348 34.990234 35.832031 C 34.718133 35.972715 34.457889 36.001953 34.556641 36.001953 C 34.373232 36.001953 34.276633 36.013981 34.046875 36.019531 C 33.817117 36.025131 33.509144 36.025436 33.128906 36.003906 C 32.368431 35.960876 31.318757 35.831053 30.054688 35.476562 C 27.526547 34.767581 24.137509 33.168759 20.484375 29.515625 C 16.831241 25.862491 15.232169 22.473167 14.523438 19.945312 C 14.169071 18.681386 14.039037 17.631464 13.996094 16.871094 C 13.974624 16.490908 13.974899 16.18286 13.980469 15.953125 C 13.986069 15.72339 13.998047 15.626918 13.998047 15.443359 C 13.998047 15.542109 14.027287 15.281867 14.167969 15.009766 C 14.308652 14.737665 14.539432 14.40775 14.857422 14.103516 C 15.493401 13.495046 16.444215 12.967581 17.962891 13.033203 z"></path>
  </symbol>

  <symbol xmlns="http://www.w3.org/2000/svg" baseProfile="basic" viewBox="0 0 48 48" id="icons8-js">
    <path fill="#f7df1e" d="M6,42V6h36v36H6z"></path>
    <path fill="#000001" d="M29.538,32.947c0.692,1.124,1.444,2.201,3.037,2.201c1.338,0,2.04-0.665,2.04-1.585 c0-1.101-0.726-1.492-2.198-2.133l-0.807-0.344c-2.329-0.988-3.878-2.226-3.878-4.841c0-2.41,1.845-4.244,4.728-4.244 c2.053,0,3.528,0.711,4.592,2.573l-2.514,1.607c-0.553-0.988-1.151-1.377-2.078-1.377c-0.946,0-1.545,0.597-1.545,1.377 c0,0.964,0.6,1.354,1.985,1.951l0.807,0.344C36.452,29.645,38,30.839,38,33.523C38,36.415,35.716,38,32.65,38 c-2.999,0-4.702-1.505-5.65-3.368L29.538,32.947z M17.952,33.029c0.506,0.906,1.275,1.603,2.381,1.603 c1.058,0,1.667-0.418,1.667-2.043V22h3.333v11.101c0,3.367-1.953,4.899-4.805,4.899c-2.577,0-4.437-1.746-5.195-3.368 L17.952,33.029z"></path>
  </symbol>

  <symbol xmlns="http://www.w3.org/2000/svg" viewBox="0 0 48 48" id="icons8-css">
    <path fill="#0277BD" d="M41,5H7l3,34l14,4l14-4L41,5L41,5z"></path>
    <path fill="#039BE5" d="M24 8L24 39.9 35.2 36.7 37.7 8z"></path>
    <path fill="#FFF" d="M33.1 13L24 13 24 17 28.9 17 28.6 21 24 21 24 25 28.4 25 28.1 29.5 24 30.9 24 35.1 31.9 32.5 32.6 21 32.6 21z"></path>
    <path fill="#EEE" d="M24,13v4h-8.9l-0.3-4H24z M19.4,21l0.2,4H24v-4H19.4z M19.8,27h-4l0.3,5.5l7.9,2.6v-4.2l-4.1-1.4L19.8,27z"></path>
  </symbol>

  <symbol xmlns="http://www.w3.org/2000/svg" viewBox="0 0 48 48" id="icons8-html">
    <path fill="#E65100" d="M41,5H7l3,34l14,4l14-4L41,5L41,5z"></path>
    <path fill="#FF6D00" d="M24 8L24 39.9 35.2 36.7 37.7 8z"></path>
    <path fill="#FFF" d="M24,25v-4h8.6l-0.7,11.5L24,35.1v-4.2l4.1-1.4l0.3-4.5H24z M32.9,17l0.3-4H24v4H32.9z"></path>
    <path fill="#EEE" d="M24,30.9v4.2l-7.9-2.6L15.7,27h4l0.2,2.5L24,30.9z M19.1,17H24v-4h-9.1l0.7,12H24v-4h-4.6L19.1,17z"></path>
  </symbol>

  <symbol xmlns="http://www.w3.org/2000/svg" viewBox="0 0 48 48" id="icons8-python">
    <path fill="#0277BD" d="M24.047,5c-1.555,0.005-2.633,0.142-3.936,0.367c-3.848,0.67-4.549,2.077-4.549,4.67V14h9v2H15.22h-4.35c-2.636,0-4.943,1.242-5.674,4.219c-0.826,3.417-0.863,5.557,0,9.125C5.851,32.005,7.294,34,9.931,34h3.632v-5.104c0-2.966,2.686-5.896,5.764-5.896h7.236c2.523,0,5-1.862,5-4.377v-8.586c0-2.439-1.759-4.263-4.218-4.672C27.406,5.359,25.589,4.994,24.047,5z M19.063,9c0.821,0,1.5,0.677,1.5,1.502c0,0.833-0.679,1.498-1.5,1.498c-0.837,0-1.5-0.664-1.5-1.498C17.563,9.68,18.226,9,19.063,9z"></path>
    <path fill="#FFC107" d="M23.078,43c1.555-0.005,2.633-0.142,3.936-0.367c3.848-0.67,4.549-2.077,4.549-4.67V34h-9v-2h9.343h4.35c2.636,0,4.943-1.242,5.674-4.219c0.826-3.417,0.863-5.557,0-9.125C41.274,15.995,39.831,14,37.194,14h-3.632v5.104c0,2.966-2.686,5.896-5.764,5.896h-7.236c-2.523,0-5,1.862-5,4.377v8.586c0,2.439,1.759,4.263,4.218,4.672C19.719,42.641,21.536,43.006,23.078,43z M28.063,39c-0.821,0-1.5-0.677-1.5-1.502c0-0.833,0.679-1.498,1.5-1.498c0.837,0,1.5,0.664,1.5,1.498C29.563,38.32,28.899,39,28.063,39z"></path>
  </symbol>

  <symbol xmlns="http://www.w3.org/2000/svg" viewBox="0 0 48 48" id="icons8-java">
    <path fill="#F44336" d="M23.65,24.898c-0.998-1.609-1.722-2.943-2.725-5.455C19.229,15.2,31.24,11.366,26.37,3.999c2.111,5.089-7.577,8.235-8.477,12.473C17.07,20.37,23.645,24.898,23.65,24.898z"></path><path fill="#F44336" d="M23.878,17.27c-0.192,2.516,2.229,3.857,2.299,5.695c0.056,1.496-1.447,2.743-1.447,2.743s2.728-0.536,3.579-2.818c0.945-2.534-1.834-4.269-1.548-6.298c0.267-1.938,6.031-5.543,6.031-5.543S24.311,11.611,23.878,17.27z"></path><g><path fill="#1565C0" d="M32.084 25.055c1.754-.394 3.233.723 3.233 2.01 0 2.901-4.021 5.643-4.021 5.643s6.225-.742 6.225-5.505C37.521 24.053 34.464 23.266 32.084 25.055zM29.129 27.395c0 0 1.941-1.383 2.458-1.902-4.763 1.011-15.638 1.147-15.638.269 0-.809 3.507-1.638 3.507-1.638s-7.773-.112-7.773 2.181C11.683 28.695 21.858 28.866 29.129 27.395z"></path><path fill="#1565C0" d="M27.935,29.571c-4.509,1.499-12.814,1.02-10.354-0.993c-1.198,0-2.974,0.963-2.974,1.889c0,1.857,8.982,3.291,15.63,0.572L27.935,29.571z"></path><path fill="#1565C0" d="M18.686,32.739c-1.636,0-2.695,1.054-2.695,1.822c0,2.391,9.76,2.632,13.627,0.205l-2.458-1.632C24.271,34.404,17.014,34.579,18.686,32.739z"></path><path fill="#1565C0" d="M36.281,36.632c0-0.936-1.055-1.377-1.433-1.588c2.228,5.373-22.317,4.956-22.317,1.784c0-0.721,1.807-1.427,3.477-1.093l-1.42-0.839C11.26,34.374,9,35.837,9,37.017C9,42.52,36.281,42.255,36.281,36.632z"></path><path fill="#1565C0" d="M39,38.604c-4.146,4.095-14.659,5.587-25.231,3.057C24.341,46.164,38.95,43.628,39,38.604z"></path></g>
  </symbol>

  <symbol fill="#957DC1" version="1.1" xmlns="http://www.w3.org/2000/svg" viewBox="0 0 1024 1024" id="address-svgrepo-com">
    <path d="M512 1012.8c-253.6 0-511.2-54.4-511.2-158.4 0-92.8 198.4-131.2 283.2-143.2h3.2c12 0 22.4 8.8 24 20.8 0.8 6.4-0.8 12.8-4.8 17.6-4 4.8-9.6 8.8-16 9.6-176.8 25.6-242.4 72-242.4 96 0 44.8 180.8 110.4 463.2 110.4s463.2-65.6 463.2-110.4c0-24-66.4-70.4-244.8-96-6.4-0.8-12-4-16-9.6-4-4.8-5.6-11.2-4.8-17.6 1.6-12 12-20.8 24-20.8h3.2c85.6 12 285.6 50.4 285.6 143.2 0.8 103.2-256 158.4-509.6 158.4z m-16.8-169.6c-12-11.2-288.8-272.8-288.8-529.6 0-168 136.8-304.8 304.8-304.8S816 145.6 816 313.6c0 249.6-276.8 517.6-288.8 528.8l-16 16-16-15.2zM512 56.8c-141.6 0-256.8 115.2-256.8 256.8 0 200.8 196 416 256.8 477.6 61.6-63.2 257.6-282.4 257.6-477.6C768.8 172.8 653.6 56.8 512 56.8z m0 392.8c-80 0-144.8-64.8-144.8-144.8S432 160 512 160c80 0 144.8 64.8 144.8 144.8 0 80-64.8 144.8-144.8 144.8zM512 208c-53.6 0-96.8 43.2-96.8 96.8S458.4 401.6 512 401.6c53.6 0 96.8-43.2 96.8-96.8S564.8 208 512 208z" fill=""></path>
  </symbol>

  <symbol fill="none" xmlns="http://www.w3.org/2000/svg" viewBox="0 0 16 132" id="down_arrow.html">
    <path d="M7.29289 131.707C7.68341 132.098 8.31658 132.098 8.7071 131.707L15.0711 125.343C15.4616 124.953 15.4616 124.319 15.0711 123.929C14.6805 123.538 14.0474 123.538 13.6568 123.929L7.99999 129.586L2.34314 123.929C1.95262 123.538 1.31945 123.538 0.928927 123.929C0.538402 124.319 0.538402 124.953 0.928927 125.343L7.29289 131.707ZM7 -4.37114e-08L6.99999 131L8.99999 131L9 4.37114e-08L7 -4.37114e-08Z" fill="black"></path>
  </symbol>

  <symbol xmlns="http://www.w3.org/2000/svg" viewBox="0 0 48 48" id="icons8-pinterest-pulsar">
    <path d="M19.1,41.8c1-1.5,1.5-2.8,1.9-4.3l1-4.1c1.1,1,2.6,1.5,4.5,1.5c5.2,0,9.5-5.3,9.5-11.8C36,16.8,30.8,12,24,12	c-6.6,0-12,5-12,11.3c0,3,1.1,5.7,3.2,7.6c0.2,0.2,0.6,0.1,0.7-0.2l0.6-2.3c0.1-0.2,0-0.5-0.1-0.7c-0.7-1-1.3-2.4-1.3-4.4	c0-4.5,4-8.3,9-8.3c0.8,0,8,0.2,8,8.5c0,4.1-1.9,8.5-6,8.5c-1-0.1-1.8-0.4-2.2-1c-0.7-1-0.6-2.6-0.3-3.5l0.8-3	c0.2-0.8,0.3-1.5,0.3-2.1c0-2-1.2-3-2.5-3c-1.8,0-3,1.9-3,3.8c0,1,0.2,2.1,0.5,3.1l-2.3,9.4c0,0-0.2,0.6-0.2,2.6	c0,0.5,0.1,1.7,0.1,2.8L19.1,41.8z"></path>
    <path fill="none" stroke="#957DC1" stroke-linecap="round" stroke-linejoin="round" stroke-width="3" d="M31.6,40.9c-2.3,1-4.9,1.6-7.6,1.6C13.8,42.5,5.5,34.2,5.5,24c0-3.7,1.1-7.2,3-10.1"></path>
    <path fill="none" stroke="#957DC1" stroke-linecap="round" stroke-linejoin="round" stroke-width="3" d="M15,7.8c2.7-1.5,5.7-2.3,9-2.3c10.2,0,18.5,8.3,18.5,18.5c0,4.5-1.6,8.6-4.3,11.9"></path>
  </symbol>

  <symbol xmlns="http://www.w3.org/2000/svg" viewBox="0 0 48 48" id="icons8-instagram-plusar">
    <path fill="none" stroke="#957DC1" stroke-linecap="round" stroke-linejoin="round" stroke-miterlimit="10" stroke-width="3" d="M41.5,21.1v-4.6c0-5.5-4.5-10-10-10h-15c-5.5,0-10,4.5-10,10v3"></path>
    <path fill="none" stroke="#957DC1" stroke-linecap="round" stroke-linejoin="round" stroke-miterlimit="10" stroke-width="3" d="M6.5,25.6v5.9c0,5.5,4.5,10,10,10h15c5.5,0,10-4.5,10-10v-4.6"></path>
    <path fill="none" stroke="#957DC1" stroke-miterlimit="10" stroke-width="3" d="M24,15.5c-4.7,0-8.5,3.8-8.5,8.5s3.8,8.5,8.5,8.5s8.5-3.8,8.5-8.5S28.7,15.5,24,15.5z"></path>
    <path d="M34,12c-1.1,0-2,0.9-2,2s0.9,2,2,2s2-0.9,2-2S35.1,12,34,12z"></path>
  </symbol>

  <symbol fill="none" xmlns="http://www.w3.org/2000/svg" viewBox="0 0 24 24" id="github-svgrepo-pulsar">
    <g id="SVGRepo_bgCarrier" stroke-width="0"></g>
    <g id="SVGRepo_tracerCarrier" stroke-linecap="round" stroke-linejoin="round"></g>
    <g id="SVGRepo_iconCarrier">
      <path d="M4.0744 2.9938C4.13263 1.96371 4.37869 1.51577 5.08432 1.15606C5.84357 0.768899 7.04106 0.949072 8.45014 1.66261C9.05706 1.97009 9.11886 1.97635 10.1825 1.83998C11.5963 1.65865 13.4164 1.65929 14.7213 1.84164C15.7081 1.97954 15.7729 1.97265 16.3813 1.66453C18.3814 0.651679 19.9605 0.71795 20.5323 1.8387C20.8177 2.39812 20.8707 3.84971 20.6494 5.04695C20.5267 5.71069 20.5397 5.79356 20.8353 6.22912C22.915 9.29385 21.4165 14.2616 17.8528 16.1155C17.5801 16.2574 17.3503 16.3452 17.163 16.4167C16.5879 16.6363 16.4133 16.703 16.6247 17.7138C16.7265 18.2 16.8491 19.4088 16.8973 20.4002C16.9844 22.1922 16.9831 22.2047 16.6688 22.5703C16.241 23.0676 15.6244 23.076 15.2066 22.5902C14.9341 22.2734 14.9075 22.1238 14.9075 20.9015C14.9075 19.0952 14.7095 17.8946 14.2417 16.8658C13.6854 15.6415 14.0978 15.185 15.37 14.9114C17.1383 14.531 18.5194 13.4397 19.2892 11.8146C20.0211 10.2698 20.1314 8.13501 18.8082 6.83668C18.4319 6.3895 18.4057 5.98446 18.6744 4.76309C18.7748 4.3066 18.859 3.71768 18.8615 3.45425C18.8653 3.03823 18.8274 2.97541 18.5719 2.97541C18.4102 2.97541 17.7924 3.21062 17.1992 3.49805L16.2524 3.95695C16.1663 3.99866 16.07 4.0147 15.975 4.0038C13.5675 3.72746 11.2799 3.72319 8.86062 4.00488C8.76526 4.01598 8.66853 3.99994 8.58215 3.95802L7.63585 3.49882C7.04259 3.21087 6.42482 2.97541 6.26317 2.97541C5.88941 2.97541 5.88379 3.25135 6.22447 4.89078C6.43258 5.89203 6.57262 6.11513 5.97101 6.91572C5.06925 8.11576 4.844 9.60592 5.32757 11.1716C5.93704 13.1446 7.4295 14.4775 9.52773 14.9222C10.7926 15.1903 11.1232 15.5401 10.6402 16.9905C10.26 18.1319 10.0196 18.4261 9.46707 18.4261C8.72365 18.4261 8.25796 17.7821 8.51424 17.1082C8.62712 16.8112 8.59354 16.7795 7.89711 16.5255C5.77117 15.7504 4.14514 14.0131 3.40172 11.7223C2.82711 9.95184 3.07994 7.64739 4.00175 6.25453C4.31561 5.78028 4.32047 5.74006 4.174 4.83217C4.09113 4.31822 4.04631 3.49103 4.0744 2.9938Z" fill="#957DC1"></path>
      <path d="M3.33203 15.9454C3.02568 15.4859 2.40481 15.3617 1.94528 15.6681C1.48576 15.9744 1.36158 16.5953 1.66793 17.0548C1.8941 17.3941 2.16467 17.6728 2.39444 17.9025C2.4368 17.9449 2.47796 17.9858 2.51815 18.0257C2.71062 18.2169 2.88056 18.3857 3.05124 18.5861C3.42875 19.0292 3.80536 19.626 4.0194 20.6962C4.11474 21.1729 4.45739 21.4297 4.64725 21.5419C4.85315 21.6635 5.07812 21.7352 5.26325 21.7819C5.64196 21.8774 6.10169 21.927 6.53799 21.9559C7.01695 21.9877 7.53592 21.998 7.99999 22.0008C8.00033 22.5527 8.44791 23.0001 8.99998 23.0001C9.55227 23.0001 9.99998 22.5524 9.99998 22.0001V21.0001C9.99998 20.4478 9.55227 20.0001 8.99998 20.0001C8.90571 20.0001 8.80372 20.0004 8.69569 20.0008C8.10883 20.0026 7.34388 20.0049 6.67018 19.9603C6.34531 19.9388 6.07825 19.9083 5.88241 19.871C5.58083 18.6871 5.09362 17.8994 4.57373 17.2891C4.34391 17.0194 4.10593 16.7834 3.91236 16.5914C3.87612 16.5555 3.84144 16.5211 3.80865 16.4883C3.5853 16.265 3.4392 16.1062 3.33203 15.9454Z" fill="#957DC1"></path>
    </g>
  </symbol>

  <symbol xmlns="http://www.w3.org/2000/svg" viewBox="0 0 48 48" id="icons8-telegram">
    <path d="M39.175,10.016c1.687,0,2.131,1.276,1.632,4.272c-0.571,3.426-2.216,14.769-3.528,21.83 c-0.502,2.702-1.407,3.867-2.724,3.867c-0.724,0-1.572-0.352-2.546-0.995c-1.32-0.872-7.984-5.279-9.431-6.314 c-1.32-0.943-3.141-2.078-0.857-4.312c0.813-0.796,6.14-5.883,10.29-9.842c0.443-0.423,0.072-1.068-0.42-1.068 c-0.112,0-0.231,0.034-0.347,0.111c-5.594,3.71-13.351,8.859-14.338,9.53c-0.987,0.67-1.949,1.1-3.231,1.1 c-0.655,0-1.394-0.112-2.263-0.362c-1.943-0.558-3.84-1.223-4.579-1.477c-2.845-0.976-2.17-2.241,0.593-3.457 c11.078-4.873,25.413-10.815,27.392-11.637C36.746,10.461,38.178,10.016,39.175,10.016 M39.175,7.016L39.175,7.016 c-1.368,0-3.015,0.441-5.506,1.474L33.37,8.614C22.735,13.03,13.092,17.128,6.218,20.152c-1.074,0.473-4.341,1.91-4.214,4.916 c0.054,1.297,0.768,3.065,3.856,4.124l0.228,0.078c0.862,0.297,2.657,0.916,4.497,1.445c1.12,0.322,2.132,0.478,3.091,0.478 c1.664,0,2.953-0.475,3.961-1.028c-0.005,0.168-0.001,0.337,0.012,0.507c0.182,2.312,1.97,3.58,3.038,4.338l0.149,0.106 c1.577,1.128,8.714,5.843,9.522,6.376c1.521,1.004,2.894,1.491,4.199,1.491c2.052,0,4.703-1.096,5.673-6.318 c0.921-4.953,1.985-11.872,2.762-16.924c0.331-2.156,0.603-3.924,0.776-4.961c0.349-2.094,0.509-4.466-0.948-6.185 C42.208,7.875,41.08,7.016,39.175,7.016L39.175,7.016z"></path>
  </symbol>

  <symbol fill="none" xmlns="http://www.w3.org/2000/svg" viewBox="0 0 24 24" id="arrow-right">
    <g id="SVGRepo_bgCarrier" stroke-width="0"></g>
    <g id="SVGRepo_tracerCarrier" stroke-linecap="round" stroke-linejoin="round"></g>
    <g id="SVGRepo_iconCarrier">
      <path d="M8.91003 19.9201L15.43 13.4001C16.2 12.6301 16.2 11.3701 15.43 10.6001L8.91003 4.08008" stroke="#644b90" stroke-width="1.5" stroke-miterlimit="10" stroke-linecap="round" stroke-linejoin="round"></path>
    </g>
  </symbol>

  <symbol fill="none" xmlns="http://www.w3.org/2000/svg" viewBox="0 0 24 24" id="arrow-left">
    <g id="SVGRepo_bgCarrier" stroke-width="0"></g>
    <g id="SVGRepo_tracerCarrier" stroke-linecap="round" stroke-linejoin="round"></g>
    <g id="SVGRepo_iconCarrier">
      <path d="M15 19.9201L8.47997 13.4001C7.70997 12.6301 7.70997 11.3701 8.47997 10.6001L15 4.08008" stroke="#644b90" stroke-width="1.5" stroke-miterlimit="10" stroke-linecap="round" stroke-linejoin="round"></path>
    </g>
  </symbol>

  <symbol xmlns="http://www.w3.org/2000/svg" viewBox="0 0 64 64" id="icons8-close">
    <path d="M 16 14 C 15.488 14 14.976938 14.194937 14.585938 14.585938 C 13.804937 15.366937 13.804937 16.633063 14.585938 17.414062 L 29.171875 32 L 14.585938 46.585938 C 13.804938 47.366938 13.804937 48.633063 14.585938 49.414062 C 14.976937 49.805062 15.488 50 16 50 C 16.512 50 17.023062 49.805062 17.414062 49.414062 L 32 34.828125 L 46.585938 49.414062 C 47.366938 50.195063 48.633063 50.195062 49.414062 49.414062 C 50.195063 48.633062 50.195062 47.366937 49.414062 46.585938 L 34.828125 32 L 49.414062 17.414062 C 50.195063 16.633063 50.195062 15.366938 49.414062 14.585938 C 48.633062 13.804938 47.366937 13.804938 46.585938 14.585938 L 32 29.171875 L 17.414062 14.585938 C 17.023062 14.194938 16.512 14 16 14 z"></path>
  </symbol>
  
  <symbol xmlns="http://www.w3.org/2000/svg" viewBox="0 0 50 50" id="icons8-menu">
    <path d="M 5 8 A 2.0002 2.0002 0 1 0 5 12 L 45 12 A 2.0002 2.0002 0 1 0 45 8 L 5 8 z M 5 23 A 2.0002 2.0002 0 1 0 5 27 L 45 27 A 2.0002 2.0002 0 1 0 45 23 L 5 23 z M 5 38 A 2.0002 2.0002 0 1 0 5 42 L 45 42 A 2.0002 2.0002 0 1 0 45 38 L 5 38 z"></path>
  </symbol>

  <symbol fill="none" xmlns="http://www.w3.org/2000/svg" viewBox="0 0 103 29" id="right-arrow">
    <path d="M102.576 22.6278C102.894 22.3097 102.894 21.7938 102.576 21.4757L97.3912 16.291C97.073 15.9728 96.5572 15.9728 96.239 16.291C95.9209 16.6092 95.9209 17.125 96.239 17.4431L100.848 22.0518L96.239 26.6604C95.9209 26.9785 95.9209 27.4944 96.239 27.8125C96.5572 28.1307 97.073 28.1307 97.3912 27.8125L102.576 22.6278ZM25.4185 22.8665L102 22.8665V21.2371L25.4185 21.2371V22.8665Z" fill="#2B2B2B"></path>
    <path d="M1.20181 5.07537H2.63623L6.00905 13.3136H6.12536L9.49818 5.07537H10.9326V15H9.80832V7.45961H9.7114L6.60996 15H5.52445L2.423 7.45961H2.32608V15H1.20181V5.07537ZM16.2111 15.1551C15.5391 15.1551 14.9495 14.9952 14.4423 14.6753C13.9383 14.3555 13.5442 13.908 13.2599 13.333C12.9788 12.7579 12.8383 12.0859 12.8383 11.317C12.8383 10.5417 12.9788 9.86485 13.2599 9.28656C13.5442 8.70826 13.9383 8.2592 14.4423 7.93936C14.9495 7.61953 15.5391 7.45961 16.2111 7.45961C16.8831 7.45961 17.4711 7.61953 17.9751 7.93936C18.4823 8.2592 18.8764 8.70826 19.1575 9.28656C19.4418 9.86485 19.5839 10.5417 19.5839 11.317C19.5839 12.0859 19.4418 12.7579 19.1575 13.333C18.8764 13.908 18.4823 14.3555 17.9751 14.6753C17.4711 14.9952 16.8831 15.1551 16.2111 15.1551ZM16.2111 14.1277C16.7216 14.1277 17.1415 13.9969 17.4711 13.7352C17.8006 13.4735 18.0445 13.1294 18.2028 12.703C18.3611 12.2765 18.4403 11.8146 18.4403 11.317C18.4403 10.8195 18.3611 10.3559 18.2028 9.92623C18.0445 9.49655 17.8006 9.14925 17.4711 8.88434C17.1415 8.61942 16.7216 8.48696 16.2111 8.48696C15.7007 8.48696 15.2807 8.61942 14.9511 8.88434C14.6216 9.14925 14.3777 9.49655 14.2194 9.92623C14.0611 10.3559 13.9819 10.8195 13.9819 11.317C13.9819 11.8146 14.0611 12.2765 14.2194 12.703C14.3777 13.1294 14.6216 13.4735 14.9511 13.7352C15.2807 13.9969 15.7007 14.1277 16.2111 14.1277ZM21.3297 15V7.55653H22.4346V8.6808H22.5121C22.6478 8.31251 22.8934 8.01367 23.2487 7.78429C23.6041 7.55491 24.0047 7.44023 24.4505 7.44023C24.5345 7.44023 24.6395 7.44184 24.7655 7.44507C24.8915 7.4483 24.9868 7.45315 25.0514 7.45961V8.62265C25.0127 8.61296 24.9238 8.59842 24.7849 8.57904C24.6492 8.55642 24.5055 8.54512 24.3536 8.54512C23.9918 8.54512 23.6687 8.62104 23.3844 8.77288C23.1033 8.92149 22.8804 9.12825 22.7157 9.39317C22.5541 9.65485 22.4734 9.95369 22.4734 10.2897V15H21.3297ZM29.3014 15.1551C28.5842 15.1551 27.9655 14.9968 27.4454 14.6802C26.9285 14.3603 26.5295 13.9145 26.2484 13.3427C25.9706 12.7676 25.8317 12.0989 25.8317 11.3364C25.8317 10.574 25.9706 9.902 26.2484 9.32048C26.5295 8.73573 26.9204 8.2802 27.4211 7.9539C27.9251 7.62437 28.5131 7.45961 29.1851 7.45961C29.5728 7.45961 29.9556 7.52422 30.3336 7.65345C30.7116 7.78268 31.0556 7.99267 31.3658 8.28343C31.6759 8.57096 31.9231 8.95218 32.1072 9.42709C32.2914 9.902 32.3835 10.4868 32.3835 11.1813V11.6659H26.6458V10.6774H31.2204C31.2204 10.2574 31.1364 9.88261 30.9684 9.55309C30.8037 9.22356 30.5678 8.96349 30.2609 8.77288C29.9572 8.58227 29.5986 8.48696 29.1851 8.48696C28.7296 8.48696 28.3354 8.60004 28.0027 8.82618C27.6731 9.0491 27.4195 9.33986 27.2418 9.69847C27.0642 10.0571 26.9753 10.4415 26.9753 10.8518V11.5109C26.9753 12.073 27.0722 12.5495 27.2661 12.9404C27.4631 13.3281 27.7361 13.6237 28.085 13.8273C28.434 14.0276 28.8394 14.1277 29.3014 14.1277C29.6018 14.1277 29.8732 14.0857 30.1155 14.0017C30.3611 13.9145 30.5727 13.7853 30.7503 13.614C30.928 13.4396 31.0653 13.2231 31.1623 12.9647L32.2672 13.2748C32.1508 13.6496 31.9554 13.9791 31.6808 14.2634C31.4062 14.5445 31.067 14.7642 30.6631 14.9225C30.2593 15.0775 29.8054 15.1551 29.3014 15.1551ZM37.9612 17.7913V7.55653H39.0661V8.73896H39.2018C39.2858 8.60973 39.4021 8.44496 39.5507 8.24466C39.7025 8.04113 39.919 7.86021 40.2001 7.70191C40.4844 7.54038 40.8688 7.45961 41.3534 7.45961C41.9802 7.45961 42.5326 7.6163 43.0108 7.92967C43.4889 8.24305 43.862 8.68727 44.1302 9.26233C44.3983 9.83738 44.5324 10.5158 44.5324 11.2976C44.5324 12.0859 44.3983 12.7692 44.1302 13.3475C43.862 13.9226 43.4905 14.3684 43.0156 14.685C42.5407 14.9984 41.9931 15.1551 41.3728 15.1551C40.8947 15.1551 40.5118 15.0759 40.2243 14.9176C39.9368 14.7561 39.7155 14.5736 39.5604 14.37C39.4053 14.1633 39.2858 13.992 39.2018 13.8563H39.1049V17.7913H37.9612ZM39.0855 11.2783C39.0855 11.8404 39.1679 12.3363 39.3326 12.766C39.4974 13.1924 39.7381 13.5268 40.0547 13.7691C40.3713 14.0082 40.759 14.1277 41.2177 14.1277C41.6959 14.1277 42.0949 14.0017 42.4147 13.7497C42.7378 13.4945 42.9801 13.1521 43.1416 12.7224C43.3064 12.2895 43.3887 11.8081 43.3887 11.2783C43.3887 10.7549 43.308 10.2832 43.1464 9.86323C42.9881 9.44001 42.7475 9.10564 42.4244 8.86011C42.1046 8.61134 41.7023 8.48696 41.2177 8.48696C40.7525 8.48696 40.3616 8.60488 40.045 8.84072C39.7284 9.07333 39.4893 9.39963 39.3278 9.81962C39.1663 10.2364 39.0855 10.7226 39.0855 11.2783ZM46.277 15V7.55653H47.3819V8.6808H47.4594C47.5951 8.31251 47.8406 8.01367 48.196 7.78429C48.5514 7.55491 48.952 7.44023 49.3978 7.44023C49.4818 7.44023 49.5868 7.44184 49.7128 7.44507C49.8388 7.4483 49.9341 7.45315 49.9987 7.45961V8.62265C49.9599 8.61296 49.8711 8.59842 49.7322 8.57904C49.5965 8.55642 49.4527 8.54512 49.3009 8.54512C48.939 8.54512 48.616 8.62104 48.3317 8.77288C48.0506 8.92149 47.8277 9.12825 47.6629 9.39317C47.5014 9.65485 47.4206 9.95369 47.4206 10.2897V15H46.277ZM54.1517 15.1551C53.4797 15.1551 52.8901 14.9952 52.3829 14.6753C51.8789 14.3555 51.4848 13.908 51.2005 13.333C50.9194 12.7579 50.7789 12.0859 50.7789 11.317C50.7789 10.5417 50.9194 9.86485 51.2005 9.28656C51.4848 8.70826 51.8789 8.2592 52.3829 7.93936C52.8901 7.61953 53.4797 7.45961 54.1517 7.45961C54.8237 7.45961 55.4117 7.61953 55.9157 7.93936C56.4229 8.2592 56.817 8.70826 57.0981 9.28656C57.3824 9.86485 57.5245 10.5417 57.5245 11.317C57.5245 12.0859 57.3824 12.7579 57.0981 13.333C56.817 13.908 56.4229 14.3555 55.9157 14.6753C55.4117 14.9952 54.8237 15.1551 54.1517 15.1551ZM54.1517 14.1277C54.6622 14.1277 55.0822 13.9969 55.4117 13.7352C55.7412 13.4735 55.9851 13.1294 56.1434 12.703C56.3017 12.2765 56.3809 11.8146 56.3809 11.317C56.3809 10.8195 56.3017 10.3559 56.1434 9.92623C55.9851 9.49655 55.7412 9.14925 55.4117 8.88434C55.0822 8.61942 54.6622 8.48696 54.1517 8.48696C53.6413 8.48696 53.2213 8.61942 52.8918 8.88434C52.5622 9.14925 52.3183 9.49655 52.16 9.92623C52.0017 10.3559 51.9226 10.8195 51.9226 11.317C51.9226 11.8146 52.0017 12.2765 52.16 12.703C52.3183 13.1294 52.5622 13.4735 52.8918 13.7352C53.2213 13.9969 53.6413 14.1277 54.1517 14.1277ZM59.2703 7.55653H60.414V15.5428C60.414 16.0015 60.3348 16.3989 60.1765 16.7349C60.0215 17.0709 59.7856 17.3309 59.469 17.5151C59.1556 17.6992 58.7599 17.7913 58.2817 17.7913C58.243 17.7913 58.2042 17.7913 58.1654 17.7913C58.1267 17.7913 58.0879 17.7913 58.0491 17.7913V16.7252C58.0879 16.7252 58.1234 16.7252 58.1557 16.7252C58.188 16.7252 58.2236 16.7252 58.2624 16.7252C58.6113 16.7252 58.8665 16.6218 59.028 16.415C59.1896 16.2115 59.2703 15.9207 59.2703 15.5428V7.55653ZM59.8325 6.31595C59.6095 6.31595 59.4173 6.24003 59.2558 6.08819C59.0975 5.93635 59.0183 5.75381 59.0183 5.54059C59.0183 5.32737 59.0975 5.14483 59.2558 4.99299C59.4173 4.84115 59.6095 4.76523 59.8325 4.76523C60.0554 4.76523 60.246 4.84115 60.4043 4.99299C60.5658 5.14483 60.6466 5.32737 60.6466 5.54059C60.6466 5.75381 60.5658 5.93635 60.4043 6.08819C60.246 6.24003 60.0554 6.31595 59.8325 6.31595ZM65.6295 15.1551C64.9123 15.1551 64.2936 14.9968 63.7735 14.6802C63.2566 14.3603 62.8576 13.9145 62.5765 13.3427C62.2987 12.7676 62.1598 12.0989 62.1598 11.3364C62.1598 10.574 62.2987 9.902 62.5765 9.32048C62.8576 8.73573 63.2485 8.2802 63.7492 7.9539C64.2532 7.62437 64.8412 7.45961 65.5132 7.45961C65.9009 7.45961 66.2837 7.52422 66.6617 7.65345C67.0397 7.78268 67.3838 7.99267 67.6939 8.28343C68.004 8.57096 68.2512 8.95218 68.4353 9.42709C68.6195 9.902 68.7116 10.4868 68.7116 11.1813V11.6659H62.9739V10.6774H67.5485C67.5485 10.2574 67.4645 9.88261 67.2965 9.55309C67.1318 9.22356 66.8959 8.96349 66.589 8.77288C66.2853 8.58227 65.9267 8.48696 65.5132 8.48696C65.0577 8.48696 64.6635 8.60004 64.3308 8.82618C64.0012 9.0491 63.7476 9.33986 63.5699 9.69847C63.3923 10.0571 63.3034 10.4415 63.3034 10.8518V11.5109C63.3034 12.073 63.4003 12.5495 63.5942 12.9404C63.7912 13.3281 64.0642 13.6237 64.4132 13.8273C64.7621 14.0276 65.1675 14.1277 65.6295 14.1277C65.93 14.1277 66.2013 14.0857 66.4436 14.0017C66.6892 13.9145 66.9008 13.7853 67.0785 13.614C67.2561 13.4396 67.3934 13.2231 67.4904 12.9647L68.5953 13.2748C68.479 13.6496 68.2835 13.9791 68.0089 14.2634C67.7343 14.5445 67.3951 14.7642 66.9912 14.9225C66.5874 15.0775 66.1335 15.1551 65.6295 15.1551ZM73.4752 15.1551C72.7774 15.1551 72.1765 14.9903 71.6725 14.6608C71.1685 14.3313 70.7808 13.8773 70.5094 13.2991C70.2381 12.7208 70.1024 12.0601 70.1024 11.317C70.1024 10.5611 70.2413 9.89392 70.5191 9.31563C70.8002 8.73411 71.1911 8.2802 71.6919 7.9539C72.1958 7.62437 72.7838 7.45961 73.4558 7.45961C73.9792 7.45961 74.4509 7.55653 74.8708 7.75037C75.2908 7.94421 75.6349 8.21559 75.903 8.5645C76.1712 8.91341 76.3376 9.32048 76.4022 9.78569H75.2585C75.1713 9.44647 74.9775 9.14602 74.677 8.88434C74.3798 8.61942 73.9792 8.48696 73.4752 8.48696C73.0294 8.48696 72.6384 8.60327 72.3025 8.83588C71.9697 9.06525 71.7096 9.38994 71.5222 9.80992C71.3381 10.2267 71.246 10.7161 71.246 11.2783C71.246 11.8533 71.3365 12.3541 71.5174 12.7805C71.7015 13.207 71.96 13.5381 72.2928 13.774C72.6288 14.0098 73.0229 14.1277 73.4752 14.1277C73.7724 14.1277 74.0422 14.076 74.2845 13.9726C74.5268 13.8693 74.7319 13.7207 74.8999 13.5268C75.0679 13.333 75.1874 13.1004 75.2585 12.829H76.4022C76.3376 13.2684 76.1776 13.6641 75.9224 14.0163C75.6704 14.3652 75.3361 14.643 74.9193 14.8498C74.5058 15.0533 74.0244 15.1551 73.4752 15.1551ZM81.3112 7.55653V8.52573H77.4538V7.55653H81.3112ZM78.578 5.7732H79.7217V12.8678C79.7217 13.1908 79.7685 13.4331 79.8622 13.5947C79.9591 13.753 80.0819 13.8596 80.2305 13.9145C80.3824 13.9662 80.5423 13.992 80.7103 13.992C80.8363 13.992 80.9397 13.9856 81.0204 13.9726C81.1012 13.9565 81.1658 13.9436 81.2143 13.9339L81.4469 14.9612C81.3693 14.9903 81.2611 15.0194 81.1222 15.0485C80.9833 15.0808 80.8072 15.0969 80.594 15.0969C80.2709 15.0969 79.9543 15.0275 79.6442 14.8885C79.3372 14.7496 79.082 14.538 78.8785 14.2537C78.6782 13.9694 78.578 13.6108 78.578 13.1779V5.7732ZM88.1707 9.22356L87.1434 9.51432C87.0787 9.34309 86.9834 9.17671 86.8574 9.01518C86.7347 8.85041 86.5667 8.71473 86.3535 8.60811C86.1402 8.5015 85.8672 8.4482 85.5345 8.4482C85.079 8.4482 84.6994 8.55319 84.3957 8.76319C84.0952 8.96995 83.945 9.23325 83.945 9.55309C83.945 9.83738 84.0484 10.0619 84.2551 10.2267C84.4619 10.3914 84.785 10.5287 85.2243 10.6386L86.3292 10.91C86.9947 11.0715 87.4907 11.3186 87.817 11.6514C88.1433 11.9809 88.3064 12.4058 88.3064 12.9259C88.3064 13.3524 88.1836 13.7336 87.9381 14.0696C87.6958 14.4056 87.3566 14.6705 86.9204 14.8643C86.4843 15.0582 85.9771 15.1551 85.3988 15.1551C84.6396 15.1551 84.0112 14.9903 83.5137 14.6608C83.0162 14.3313 82.7012 13.8499 82.5687 13.2167L83.6542 12.9453C83.7576 13.3459 83.9531 13.6463 84.2406 13.8466C84.5314 14.047 84.911 14.1471 85.3794 14.1471C85.9125 14.1471 86.3357 14.034 86.6491 13.8079C86.9657 13.5785 87.124 13.3039 87.124 12.9841C87.124 12.7256 87.0335 12.5092 86.8526 12.3347C86.6717 12.157 86.3938 12.0246 86.0191 11.9373L84.7785 11.6466C84.0968 11.485 83.5961 11.2347 83.2762 10.8954C82.9596 10.553 82.8013 10.1249 82.8013 9.61124C82.8013 9.19125 82.9193 8.81972 83.1551 8.49666C83.3942 8.17359 83.7188 7.91998 84.1291 7.73583C84.5427 7.55168 85.0111 7.45961 85.5345 7.45961C86.2711 7.45961 86.8494 7.62114 87.2694 7.94421C87.6926 8.26728 87.993 8.69373 88.1707 9.22356Z" fill="#2B2B2B"></path>
  </symbol>
</svg>