<svg width="0" height="0" class="hidden">
  <symbol xmlns="http://www.w3.org/2000/svg" viewBox="0 0 50 50" id="icons8-twitterx">
    <path d="M 11 4 C 7.134 4 4 7.134 4 11 L 4 39 C 4 42.866 7.134 46 11 46 L 39 46 C 42.866 46 46 42.866 46 39 L 46 11 C 46 7.134 42.866 4 39 4 L 11 4 z M 13.085938 13 L 21.023438 13 L 26.660156 21.009766 L 33.5 13 L 36 13 L 27.789062 22.613281 L 37.914062 37 L 29.978516 37 L 23.4375 27.707031 L 15.5 37 L 13 37 L 22.308594 26.103516 L 13.085938 13 z M 16.914062 15 L 31.021484 35 L 34.085938 35 L 19.978516 15 L 16.914062 15 z"></path>
  </symbol>

  <symbol fill="none" xmlns="http://www.w3.org/2000/svg" viewBox="0 0 24 24" id="triangle-fill-svgrepo-com">
    <g id="SVGRepo_bgCarrier" stroke-width="0"></g>
    <g id="SVGRepo_tracerCarrier" stroke-linecap="round" stroke-linejoin="round"></g>
    <g id="SVGRepo_iconCarrier">
      <path d="M10.285 3.85831C11.0618 2.56363 12.9382 2.56363 13.715 3.85831L22.1826 17.971C22.9824 19.3041 22.0222 21 20.4676 21H3.53238C1.97779 21 1.01757 19.3041 1.81739 17.971L10.285 3.85831Z" fill="#000000"></path>
    </g>
  </symbol>

  <symbol fill="none" xmlns="http://www.w3.org/2000/svg" stroke="#0" viewBox="0 0 24 24" id="triangle-svgrepo-com">
    <g id="SVGRepo_bgCarrier" stroke-width="0"></g>
    <g id="SVGRepo_tracerCarrier" stroke-linecap="round" stroke-linejoin="round"></g>
    <g id="SVGRepo_iconCarrier">
      <g id="Shape / Triangle">
        <path id="Vector" d="M4.37891 15.1999C3.46947 16.775 3.01489 17.5634 3.08281 18.2097C3.14206 18.7734 3.43792 19.2851 3.89648 19.6182C4.42204 20.0001 5.3309 20.0001 7.14853 20.0001H16.8515C18.6691 20.0001 19.5778 20.0001 20.1034 19.6182C20.5619 19.2851 20.8579 18.7734 20.9172 18.2097C20.9851 17.5634 20.5307 16.775 19.6212 15.1999L14.7715 6.79986C13.8621 5.22468 13.4071 4.43722 12.8135 4.17291C12.2957 3.94236 11.704 3.94236 11.1862 4.17291C10.5928 4.43711 10.1381 5.22458 9.22946 6.79845L4.37891 15.1999Z" stroke="#000000" stroke-width="2" stroke-linecap="round" stroke-linejoin="round"></path>
      </g>
    </g>
  </symbol>

  <symbol fill="#000000" id="right-arrow-svgrepo-com" xmlns="http://www.w3.org/2000/svg" viewBox="0 0 24 24">
    <path id="primary" d="M3,12H21m-3,3,3-3L18,9" style="fill: none; stroke: rgb(0, 0, 0); stroke-linecap: round; stroke-linejoin: round; stroke-width: 1.5;"></path>
  </symbol>

  <symbol xmlns="http://www.w3.org/2000/svg" xmlns:xlink="http://www.w3.org/1999/xlink" version="1.1" id="linkedin" x="0px" y="0px" xml:space="preserve" viewBox="0 0 24 24">
    <g>
      <path id="Path_2525" d="M23.002,21.584h0.227l-0.435-0.658l0,0c0.266,0,0.407-0.169,0.409-0.376c0-0.008,0-0.017-0.001-0.025   c0-0.282-0.17-0.417-0.519-0.417h-0.564v1.476h0.212v-0.643h0.261L23.002,21.584z M22.577,20.774h-0.246v-0.499h0.312   c0.161,0,0.345,0.026,0.345,0.237c0,0.242-0.186,0.262-0.412,0.262"></path>
      <path id="Path_2520" d="M17.291,19.073h-3.007v-4.709c0-1.123-0.02-2.568-1.564-2.568c-1.566,0-1.806,1.223-1.806,2.487v4.79H7.908   V9.389h2.887v1.323h0.04c0.589-1.006,1.683-1.607,2.848-1.564c3.048,0,3.609,2.005,3.609,4.612L17.291,19.073z M4.515,8.065   c-0.964,0-1.745-0.781-1.745-1.745c0-0.964,0.781-1.745,1.745-1.745c0.964,0,1.745,0.781,1.745,1.745   C6.26,7.284,5.479,8.065,4.515,8.065L4.515,8.065 M6.018,19.073h-3.01V9.389h3.01V19.073z M18.79,1.783H1.497   C0.68,1.774,0.01,2.429,0,3.246V20.61c0.01,0.818,0.68,1.473,1.497,1.464H18.79c0.819,0.01,1.492-0.645,1.503-1.464V3.245   c-0.012-0.819-0.685-1.474-1.503-1.463"></path>
      <path id="Path_2526" d="M22.603,19.451c-0.764,0.007-1.378,0.633-1.37,1.397c0.007,0.764,0.633,1.378,1.397,1.37   c0.764-0.007,1.378-0.633,1.37-1.397c-0.007-0.754-0.617-1.363-1.37-1.37H22.603 M22.635,22.059   c-0.67,0.011-1.254-0.522-1.265-1.192c-0.011-0.67,0.523-1.222,1.193-1.233c0.67-0.011,1.222,0.523,1.233,1.193   c0,0.007,0,0.013,0,0.02C23.81,21.502,23.29,22.045,22.635,22.059h-0.031"></path>
    </g>
  </symbol>

  <symbol xmlns="http://www.w3.org/2000/svg" xmlns:xlink="http://www.w3.org/1999/xlink" version="1.1" id="facebook" x="0px" y="0px" xml:space="preserve" viewBox="0 0 24 24">
    <g>
      <path d="M24,12.073c0,5.989-4.394,10.954-10.13,11.855v-8.363h2.789l0.531-3.46H13.87V9.86c0-0.947,0.464-1.869,1.95-1.869h1.509   V5.045c0,0-1.37-0.234-2.679-0.234c-2.734,0-4.52,1.657-4.52,4.656v2.637H7.091v3.46h3.039v8.363C4.395,23.025,0,18.061,0,12.073   c0-6.627,5.373-12,12-12S24,5.445,24,12.073z"></path>
    </g>
  </symbol>

  <symbol xmlns="http://www.w3.org/2000/svg" xmlns:xlink="http://www.w3.org/1999/xlink" version="1.1" id="github" x="0px" y="0px" xml:space="preserve" viewBox="0 0 24 24">
    <g>
      <path d="M12,0.296c-6.627,0-12,5.372-12,12c0,5.302,3.438,9.8,8.206,11.387   c0.6,0.111,0.82-0.26,0.82-0.577c0-0.286-0.011-1.231-0.016-2.234c-3.338,0.726-4.043-1.416-4.043-1.416   C4.421,18.069,3.635,17.7,3.635,17.7c-1.089-0.745,0.082-0.729,0.082-0.729c1.205,0.085,1.839,1.237,1.839,1.237   c1.07,1.834,2.807,1.304,3.492,0.997C9.156,18.429,9.467,17.9,9.81,17.6c-2.665-0.303-5.467-1.332-5.467-5.93   c0-1.31,0.469-2.381,1.237-3.221C5.455,8.146,5.044,6.926,5.696,5.273c0,0,1.008-0.322,3.301,1.23   C9.954,6.237,10.98,6.104,12,6.099c1.02,0.005,2.047,0.138,3.006,0.404c2.29-1.553,3.297-1.23,3.297-1.23   c0.653,1.653,0.242,2.873,0.118,3.176c0.769,0.84,1.235,1.911,1.235,3.221c0,4.609-2.807,5.624-5.479,5.921   c0.43,0.372,0.814,1.103,0.814,2.222c0,1.606-0.014,2.898-0.014,3.293c0,0.319,0.216,0.694,0.824,0.576   c4.766-1.589,8.2-6.085,8.2-11.385C24,5.669,18.627,0.296,12,0.296z"></path>
      <path d="M4.545,17.526c-0.026,0.06-0.12,0.078-0.206,0.037c-0.087-0.039-0.136-0.121-0.108-0.18   c0.026-0.061,0.12-0.078,0.207-0.037C4.525,17.384,4.575,17.466,4.545,17.526L4.545,17.526z"></path>
      <path d="M5.031,18.068c-0.057,0.053-0.169,0.028-0.245-0.055c-0.079-0.084-0.093-0.196-0.035-0.249   c0.059-0.053,0.167-0.028,0.246,0.056C5.076,17.903,5.091,18.014,5.031,18.068L5.031,18.068z"></path>
      <path d="M5.504,18.759c-0.074,0.051-0.194,0.003-0.268-0.103c-0.074-0.107-0.074-0.235,0.002-0.286   c0.074-0.051,0.193-0.005,0.268,0.101C5.579,18.579,5.579,18.707,5.504,18.759L5.504,18.759z"></path>
      <path d="M6.152,19.427c-0.066,0.073-0.206,0.053-0.308-0.046c-0.105-0.097-0.134-0.234-0.068-0.307   c0.067-0.073,0.208-0.052,0.311,0.046C6.191,19.217,6.222,19.355,6.152,19.427L6.152,19.427z"></path>
      <path d="M7.047,19.814c-0.029,0.094-0.164,0.137-0.3,0.097C6.611,19.87,6.522,19.76,6.55,19.665   c0.028-0.095,0.164-0.139,0.301-0.096C6.986,19.609,7.075,19.719,7.047,19.814L7.047,19.814z"></path>
      <path d="M8.029,19.886c0.003,0.099-0.112,0.181-0.255,0.183c-0.143,0.003-0.26-0.077-0.261-0.174c0-0.1,0.113-0.181,0.256-0.184   C7.912,19.708,8.029,19.788,8.029,19.886L8.029,19.886z"></path>
      <path d="M8.943,19.731c0.017,0.096-0.082,0.196-0.224,0.222c-0.139,0.026-0.268-0.034-0.286-0.13   c-0.017-0.099,0.084-0.198,0.223-0.224C8.797,19.574,8.925,19.632,8.943,19.731L8.943,19.731z"></path>
    </g>
  </symbol>

  <symbol xmlns="http://www.w3.org/2000/svg" viewBox="0 0 50 50" id="icons8-email">
    <path d="M 14 4 C 8.4886661 4 4 8.4886661 4 14 L 4 36 C 4 41.511334 8.4886661 46 14 46 L 36 46 C 41.511334 46 46 41.511334 46 36 L 46 14 C 46 8.4886661 41.511334 4 36 4 L 14 4 z M 14 6 L 36 6 C 40.430666 6 44 9.5693339 44 14 L 44 36 C 44 40.430666 40.430666 44 36 44 L 14 44 C 9.5693339 44 6 40.430666 6 36 L 6 14 C 6 9.5693339 9.5693339 6 14 6 z M 13 15 C 11.35503 15 10 16.35503 10 18 L 10 32 C 10 33.64497 11.35503 35 13 35 L 37 35 C 38.64497 35 40 33.64497 40 32 L 40 18 C 40 16.35503 38.64497 15 37 15 L 13 15 z M 13.414062 17 L 36.583984 17 L 27.677734 25.892578 C 26.18494 27.382984 23.796834 27.382819 22.304688 25.890625 L 13.414062 17 z M 38 18.412109 L 38 31.587891 L 31.402344 25 L 38 18.412109 z M 12 18.414062 L 18.585938 25 L 12 31.585938 L 12 18.414062 z M 29.988281 26.412109 L 36.585938 33 L 13.414062 33 L 20 26.414062 L 20.890625 27.304688 C 23.146478 29.56054 26.832638 29.562194 29.089844 27.308594 L 29.988281 26.412109 z"></path>
  </symbol>

  <symbol xmlns="http://www.w3.org/2000/svg" viewBox="0 0 50 50" id="icons8-phone">
    <path d="M 14 3.9902344 C 8.4886661 3.9902344 4 8.4789008 4 13.990234 L 4 35.990234 C 4 41.501568 8.4886661 45.990234 14 45.990234 L 36 45.990234 C 41.511334 45.990234 46 41.501568 46 35.990234 L 46 13.990234 C 46 8.4789008 41.511334 3.9902344 36 3.9902344 L 14 3.9902344 z M 14 5.9902344 L 36 5.9902344 C 40.430666 5.9902344 44 9.5595687 44 13.990234 L 44 35.990234 C 44 40.4209 40.430666 43.990234 36 43.990234 L 14 43.990234 C 9.5693339 43.990234 6 40.4209 6 35.990234 L 6 13.990234 C 6 9.5595687 9.5693339 5.9902344 14 5.9902344 z M 18.048828 11.035156 C 16.003504 10.946776 14.45113 11.723922 13.474609 12.658203 C 12.986349 13.125343 12.633832 13.625179 12.392578 14.091797 C 12.151324 14.558415 11.998047 14.943108 11.998047 15.443359 C 11.998047 15.398799 11.987059 15.632684 11.980469 15.904297 C 11.973869 16.17591 11.97507 16.542045 12 16.984375 C 12.04996 17.869036 12.199897 19.065677 12.597656 20.484375 C 13.393174 23.321771 15.184446 27.043821 19.070312 30.929688 C 22.95618 34.815554 26.678014 36.606575 29.515625 37.402344 C 30.93443 37.800228 32.130881 37.949937 33.015625 38 C 33.457997 38.02503 33.822105 38.026091 34.09375 38.019531 C 34.365395 38.012931 34.601049 38.001953 34.556641 38.001953 C 35.056892 38.001953 35.441585 37.848676 35.908203 37.607422 C 36.374821 37.366168 36.874657 37.013651 37.341797 36.525391 C 38.276078 35.54887 39.053222 33.996496 38.964844 31.951172 C 38.922907 30.975693 38.381316 30.111858 37.582031 29.599609 C 36.96435 29.203814 36.005458 28.589415 34.753906 27.789062 C 33.301811 26.861299 31.44451 26.795029 29.929688 27.625 L 30.015625 27.582031 L 28.837891 28.087891 L 28.751953 28.148438 C 28.465693 28.349428 28.111154 28.386664 27.789062 28.251953 C 26.886813 27.874649 25.480985 27.133329 24.173828 25.826172 C 22.866671 24.519015 22.125351 23.113186 21.748047 22.210938 C 21.613336 21.888845 21.650568 21.534307 21.851562 21.248047 L 21.912109 21.162109 L 22.417969 19.984375 L 22.375 20.070312 C 23.204764 18.555868 23.140248 16.698619 22.210938 15.246094 C 21.410584 13.994542 20.796186 13.03565 20.400391 12.417969 C 19.888142 11.618684 19.02431 11.077096 18.048828 11.035156 z M 17.962891 13.033203 C 18.243409 13.045263 18.533045 13.209378 18.716797 13.496094 C 19.113001 14.114413 19.727696 15.07377 20.527344 16.324219 C 21.058033 17.153694 21.09533 18.243821 20.621094 19.109375 L 20.597656 19.152344 L 20.115234 20.279297 L 20.214844 20.097656 C 19.623835 20.939396 19.505055 22.032514 19.902344 22.982422 C 20.35304 24.060173 21.214923 25.695392 22.759766 27.240234 C 24.304608 28.785077 25.939827 29.64696 27.017578 30.097656 C 27.967486 30.494945 29.060604 30.376165 29.902344 29.785156 L 29.720703 29.884766 L 30.847656 29.402344 L 30.890625 29.378906 C 31.755801 28.904877 32.845877 28.944375 33.675781 29.474609 L 33.675781 29.472656 C 34.92623 30.272304 35.885587 30.886999 36.503906 31.283203 C 36.790622 31.466955 36.954736 31.756591 36.966797 32.037109 C 37.032417 33.555785 36.504954 34.506599 35.896484 35.142578 C 35.59225 35.460568 35.262335 35.691348 34.990234 35.832031 C 34.718133 35.972715 34.457889 36.001953 34.556641 36.001953 C 34.373232 36.001953 34.276633 36.013981 34.046875 36.019531 C 33.817117 36.025131 33.509144 36.025436 33.128906 36.003906 C 32.368431 35.960876 31.318757 35.831053 30.054688 35.476562 C 27.526547 34.767581 24.137509 33.168759 20.484375 29.515625 C 16.831241 25.862491 15.232169 22.473167 14.523438 19.945312 C 14.169071 18.681386 14.039037 17.631464 13.996094 16.871094 C 13.974624 16.490908 13.974899 16.18286 13.980469 15.953125 C 13.986069 15.72339 13.998047 15.626918 13.998047 15.443359 C 13.998047 15.542109 14.027287 15.281867 14.167969 15.009766 C 14.308652 14.737665 14.539432 14.40775 14.857422 14.103516 C 15.493401 13.495046 16.444215 12.967581 17.962891 13.033203 z"></path>
  </symbol>

  <symbol xmlns="http://www.w3.org/2000/svg" baseProfile="basic" viewBox="0 0 48 48" id="icons8-js">
    <path fill="#f7df1e" d="M6,42V6h36v36H6z"></path>
    <path fill="#000001" d="M29.538,32.947c0.692,1.124,1.444,2.201,3.037,2.201c1.338,0,2.04-0.665,2.04-1.585 c0-1.101-0.726-1.492-2.198-2.133l-0.807-0.344c-2.329-0.988-3.878-2.226-3.878-4.841c0-2.41,1.845-4.244,4.728-4.244 c2.053,0,3.528,0.711,4.592,2.573l-2.514,1.607c-0.553-0.988-1.151-1.377-2.078-1.377c-0.946,0-1.545,0.597-1.545,1.377 c0,0.964,0.6,1.354,1.985,1.951l0.807,0.344C36.452,29.645,38,30.839,38,33.523C38,36.415,35.716,38,32.65,38 c-2.999,0-4.702-1.505-5.65-3.368L29.538,32.947z M17.952,33.029c0.506,0.906,1.275,1.603,2.381,1.603 c1.058,0,1.667-0.418,1.667-2.043V22h3.333v11.101c0,3.367-1.953,4.899-4.805,4.899c-2.577,0-4.437-1.746-5.195-3.368 L17.952,33.029z"></path>
  </symbol>

  <symbol xmlns="http://www.w3.org/2000/svg" viewBox="0 0 48 48" id="icons8-css">
    <path fill="#0277BD" d="M41,5H7l3,34l14,4l14-4L41,5L41,5z"></path>
    <path fill="#039BE5" d="M24 8L24 39.9 35.2 36.7 37.7 8z"></path>
    <path fill="#FFF" d="M33.1 13L24 13 24 17 28.9 17 28.6 21 24 21 24 25 28.4 25 28.1 29.5 24 30.9 24 35.1 31.9 32.5 32.6 21 32.6 21z"></path>
    <path fill="#EEE" d="M24,13v4h-8.9l-0.3-4H24z M19.4,21l0.2,4H24v-4H19.4z M19.8,27h-4l0.3,5.5l7.9,2.6v-4.2l-4.1-1.4L19.8,27z"></path>
  </symbol>

  <symbol xmlns="http://www.w3.org/2000/svg" viewBox="0 0 48 48" id="icons8-html">
    <path fill="#E65100" d="M41,5H7l3,34l14,4l14-4L41,5L41,5z"></path>
    <path fill="#FF6D00" d="M24 8L24 39.9 35.2 36.7 37.7 8z"></path>
    <path fill="#FFF" d="M24,25v-4h8.6l-0.7,11.5L24,35.1v-4.2l4.1-1.4l0.3-4.5H24z M32.9,17l0.3-4H24v4H32.9z"></path>
    <path fill="#EEE" d="M24,30.9v4.2l-7.9-2.6L15.7,27h4l0.2,2.5L24,30.9z M19.1,17H24v-4h-9.1l0.7,12H24v-4h-4.6L19.1,17z"></path>
  </symbol>

  <symbol xmlns="http://www.w3.org/2000/svg" viewBox="0 0 48 48" id="icons8-python">
    <path fill="#0277BD" d="M24.047,5c-1.555,0.005-2.633,0.142-3.936,0.367c-3.848,0.67-4.549,2.077-4.549,4.67V14h9v2H15.22h-4.35c-2.636,0-4.943,1.242-5.674,4.219c-0.826,3.417-0.863,5.557,0,9.125C5.851,32.005,7.294,34,9.931,34h3.632v-5.104c0-2.966,2.686-5.896,5.764-5.896h7.236c2.523,0,5-1.862,5-4.377v-8.586c0-2.439-1.759-4.263-4.218-4.672C27.406,5.359,25.589,4.994,24.047,5z M19.063,9c0.821,0,1.5,0.677,1.5,1.502c0,0.833-0.679,1.498-1.5,1.498c-0.837,0-1.5-0.664-1.5-1.498C17.563,9.68,18.226,9,19.063,9z"></path>
    <path fill="#FFC107" d="M23.078,43c1.555-0.005,2.633-0.142,3.936-0.367c3.848-0.67,4.549-2.077,4.549-4.67V34h-9v-2h9.343h4.35c2.636,0,4.943-1.242,5.674-4.219c0.826-3.417,0.863-5.557,0-9.125C41.274,15.995,39.831,14,37.194,14h-3.632v5.104c0,2.966-2.686,5.896-5.764,5.896h-7.236c-2.523,0-5,1.862-5,4.377v8.586c0,2.439,1.759,4.263,4.218,4.672C19.719,42.641,21.536,43.006,23.078,43z M28.063,39c-0.821,0-1.5-0.677-1.5-1.502c0-0.833,0.679-1.498,1.5-1.498c0.837,0,1.5,0.664,1.5,1.498C29.563,38.32,28.899,39,28.063,39z"></path>
  </symbol>

  <symbol xmlns="http://www.w3.org/2000/svg" viewBox="0 0 48 48" id="icons8-java">
    <path fill="#F44336" d="M23.65,24.898c-0.998-1.609-1.722-2.943-2.725-5.455C19.229,15.2,31.24,11.366,26.37,3.999c2.111,5.089-7.577,8.235-8.477,12.473C17.07,20.37,23.645,24.898,23.65,24.898z"></path><path fill="#F44336" d="M23.878,17.27c-0.192,2.516,2.229,3.857,2.299,5.695c0.056,1.496-1.447,2.743-1.447,2.743s2.728-0.536,3.579-2.818c0.945-2.534-1.834-4.269-1.548-6.298c0.267-1.938,6.031-5.543,6.031-5.543S24.311,11.611,23.878,17.27z"></path><g><path fill="#1565C0" d="M32.084 25.055c1.754-.394 3.233.723 3.233 2.01 0 2.901-4.021 5.643-4.021 5.643s6.225-.742 6.225-5.505C37.521 24.053 34.464 23.266 32.084 25.055zM29.129 27.395c0 0 1.941-1.383 2.458-1.902-4.763 1.011-15.638 1.147-15.638.269 0-.809 3.507-1.638 3.507-1.638s-7.773-.112-7.773 2.181C11.683 28.695 21.858 28.866 29.129 27.395z"></path><path fill="#1565C0" d="M27.935,29.571c-4.509,1.499-12.814,1.02-10.354-0.993c-1.198,0-2.974,0.963-2.974,1.889c0,1.857,8.982,3.291,15.63,0.572L27.935,29.571z"></path><path fill="#1565C0" d="M18.686,32.739c-1.636,0-2.695,1.054-2.695,1.822c0,2.391,9.76,2.632,13.627,0.205l-2.458-1.632C24.271,34.404,17.014,34.579,18.686,32.739z"></path><path fill="#1565C0" d="M36.281,36.632c0-0.936-1.055-1.377-1.433-1.588c2.228,5.373-22.317,4.956-22.317,1.784c0-0.721,1.807-1.427,3.477-1.093l-1.42-0.839C11.26,34.374,9,35.837,9,37.017C9,42.52,36.281,42.255,36.281,36.632z"></path><path fill="#1565C0" d="M39,38.604c-4.146,4.095-14.659,5.587-25.231,3.057C24.341,46.164,38.95,43.628,39,38.604z"></path></g>
  </symbol>

  <symbol fill="#000000" version="1.1" xmlns="http://www.w3.org/2000/svg" viewBox="0 0 1024 1024" id="address-svgrepo-com">
    <path d="M512 1012.8c-253.6 0-511.2-54.4-511.2-158.4 0-92.8 198.4-131.2 283.2-143.2h3.2c12 0 22.4 8.8 24 20.8 0.8 6.4-0.8 12.8-4.8 17.6-4 4.8-9.6 8.8-16 9.6-176.8 25.6-242.4 72-242.4 96 0 44.8 180.8 110.4 463.2 110.4s463.2-65.6 463.2-110.4c0-24-66.4-70.4-244.8-96-6.4-0.8-12-4-16-9.6-4-4.8-5.6-11.2-4.8-17.6 1.6-12 12-20.8 24-20.8h3.2c85.6 12 285.6 50.4 285.6 143.2 0.8 103.2-256 158.4-509.6 158.4z m-16.8-169.6c-12-11.2-288.8-272.8-288.8-529.6 0-168 136.8-304.8 304.8-304.8S816 145.6 816 313.6c0 249.6-276.8 517.6-288.8 528.8l-16 16-16-15.2zM512 56.8c-141.6 0-256.8 115.2-256.8 256.8 0 200.8 196 416 256.8 477.6 61.6-63.2 257.6-282.4 257.6-477.6C768.8 172.8 653.6 56.8 512 56.8z m0 392.8c-80 0-144.8-64.8-144.8-144.8S432 160 512 160c80 0 144.8 64.8 144.8 144.8 0 80-64.8 144.8-144.8 144.8zM512 208c-53.6 0-96.8 43.2-96.8 96.8S458.4 401.6 512 401.6c53.6 0 96.8-43.2 96.8-96.8S564.8 208 512 208z" fill=""></path>
  </symbol>

  <symbol fill="none" xmlns="http://www.w3.org/2000/svg" viewBox="0 0 16 132" id="down_arrow.html">
    <path d="M7.29289 131.707C7.68341 132.098 8.31658 132.098 8.7071 131.707L15.0711 125.343C15.4616 124.953 15.4616 124.319 15.0711 123.929C14.6805 123.538 14.0474 123.538 13.6568 123.929L7.99999 129.586L2.34314 123.929C1.95262 123.538 1.31945 123.538 0.928927 123.929C0.538402 124.319 0.538402 124.953 0.928927 125.343L7.29289 131.707ZM7 -4.37114e-08L6.99999 131L8.99999 131L9 4.37114e-08L7 -4.37114e-08Z" fill="black"></path>
  </symbol>

  <symbol xmlns="http://www.w3.org/2000/svg" viewBox="0 0 48 48" id="icons8-pinterest-pulsar">
    <path d="M19.1,41.8c1-1.5,1.5-2.8,1.9-4.3l1-4.1c1.1,1,2.6,1.5,4.5,1.5c5.2,0,9.5-5.3,9.5-11.8C36,16.8,30.8,12,24,12	c-6.6,0-12,5-12,11.3c0,3,1.1,5.7,3.2,7.6c0.2,0.2,0.6,0.1,0.7-0.2l0.6-2.3c0.1-0.2,0-0.5-0.1-0.7c-0.7-1-1.3-2.4-1.3-4.4	c0-4.5,4-8.3,9-8.3c0.8,0,8,0.2,8,8.5c0,4.1-1.9,8.5-6,8.5c-1-0.1-1.8-0.4-2.2-1c-0.7-1-0.6-2.6-0.3-3.5l0.8-3	c0.2-0.8,0.3-1.5,0.3-2.1c0-2-1.2-3-2.5-3c-1.8,0-3,1.9-3,3.8c0,1,0.2,2.1,0.5,3.1l-2.3,9.4c0,0-0.2,0.6-0.2,2.6	c0,0.5,0.1,1.7,0.1,2.8L19.1,41.8z"></path>
    <path fill="none" stroke="#000" stroke-linecap="round" stroke-linejoin="round" stroke-width="3" d="M31.6,40.9c-2.3,1-4.9,1.6-7.6,1.6C13.8,42.5,5.5,34.2,5.5,24c0-3.7,1.1-7.2,3-10.1"></path>
    <path fill="none" stroke="#000" stroke-linecap="round" stroke-linejoin="round" stroke-width="3" d="M15,7.8c2.7-1.5,5.7-2.3,9-2.3c10.2,0,18.5,8.3,18.5,18.5c0,4.5-1.6,8.6-4.3,11.9"></path>
  </symbol>

  <symbol xmlns="http://www.w3.org/2000/svg" viewBox="0 0 48 48" id="icons8-instagram-plusar">
    <path fill="none" stroke="#000" stroke-linecap="round" stroke-linejoin="round" stroke-miterlimit="10" stroke-width="3" d="M41.5,21.1v-4.6c0-5.5-4.5-10-10-10h-15c-5.5,0-10,4.5-10,10v3"></path>
    <path fill="none" stroke="#000" stroke-linecap="round" stroke-linejoin="round" stroke-miterlimit="10" stroke-width="3" d="M6.5,25.6v5.9c0,5.5,4.5,10,10,10h15c5.5,0,10-4.5,10-10v-4.6"></path>
    <path fill="none" stroke="#000" stroke-miterlimit="10" stroke-width="3" d="M24,15.5c-4.7,0-8.5,3.8-8.5,8.5s3.8,8.5,8.5,8.5s8.5-3.8,8.5-8.5S28.7,15.5,24,15.5z"></path>
    <path d="M34,12c-1.1,0-2,0.9-2,2s0.9,2,2,2s2-0.9,2-2S35.1,12,34,12z"></path>
  </symbol>

  <symbol fill="none" xmlns="http://www.w3.org/2000/svg" viewBox="0 0 24 24" id="github-svgrepo-pulsar">
    <g id="SVGRepo_bgCarrier" stroke-width="0"></g>
    <g id="SVGRepo_tracerCarrier" stroke-linecap="round" stroke-linejoin="round"></g>
    <g id="SVGRepo_iconCarrier">
      <path d="M4.0744 2.9938C4.13263 1.96371 4.37869 1.51577 5.08432 1.15606C5.84357 0.768899 7.04106 0.949072 8.45014 1.66261C9.05706 1.97009 9.11886 1.97635 10.1825 1.83998C11.5963 1.65865 13.4164 1.65929 14.7213 1.84164C15.7081 1.97954 15.7729 1.97265 16.3813 1.66453C18.3814 0.651679 19.9605 0.71795 20.5323 1.8387C20.8177 2.39812 20.8707 3.84971 20.6494 5.04695C20.5267 5.71069 20.5397 5.79356 20.8353 6.22912C22.915 9.29385 21.4165 14.2616 17.8528 16.1155C17.5801 16.2574 17.3503 16.3452 17.163 16.4167C16.5879 16.6363 16.4133 16.703 16.6247 17.7138C16.7265 18.2 16.8491 19.4088 16.8973 20.4002C16.9844 22.1922 16.9831 22.2047 16.6688 22.5703C16.241 23.0676 15.6244 23.076 15.2066 22.5902C14.9341 22.2734 14.9075 22.1238 14.9075 20.9015C14.9075 19.0952 14.7095 17.8946 14.2417 16.8658C13.6854 15.6415 14.0978 15.185 15.37 14.9114C17.1383 14.531 18.5194 13.4397 19.2892 11.8146C20.0211 10.2698 20.1314 8.13501 18.8082 6.83668C18.4319 6.3895 18.4057 5.98446 18.6744 4.76309C18.7748 4.3066 18.859 3.71768 18.8615 3.45425C18.8653 3.03823 18.8274 2.97541 18.5719 2.97541C18.4102 2.97541 17.7924 3.21062 17.1992 3.49805L16.2524 3.95695C16.1663 3.99866 16.07 4.0147 15.975 4.0038C13.5675 3.72746 11.2799 3.72319 8.86062 4.00488C8.76526 4.01598 8.66853 3.99994 8.58215 3.95802L7.63585 3.49882C7.04259 3.21087 6.42482 2.97541 6.26317 2.97541C5.88941 2.97541 5.88379 3.25135 6.22447 4.89078C6.43258 5.89203 6.57262 6.11513 5.97101 6.91572C5.06925 8.11576 4.844 9.60592 5.32757 11.1716C5.93704 13.1446 7.4295 14.4775 9.52773 14.9222C10.7926 15.1903 11.1232 15.5401 10.6402 16.9905C10.26 18.1319 10.0196 18.4261 9.46707 18.4261C8.72365 18.4261 8.25796 17.7821 8.51424 17.1082C8.62712 16.8112 8.59354 16.7795 7.89711 16.5255C5.77117 15.7504 4.14514 14.0131 3.40172 11.7223C2.82711 9.95184 3.07994 7.64739 4.00175 6.25453C4.31561 5.78028 4.32047 5.74006 4.174 4.83217C4.09113 4.31822 4.04631 3.49103 4.0744 2.9938Z" fill="#0F0F0F"></path>
      <path d="M3.33203 15.9454C3.02568 15.4859 2.40481 15.3617 1.94528 15.6681C1.48576 15.9744 1.36158 16.5953 1.66793 17.0548C1.8941 17.3941 2.16467 17.6728 2.39444 17.9025C2.4368 17.9449 2.47796 17.9858 2.51815 18.0257C2.71062 18.2169 2.88056 18.3857 3.05124 18.5861C3.42875 19.0292 3.80536 19.626 4.0194 20.6962C4.11474 21.1729 4.45739 21.4297 4.64725 21.5419C4.85315 21.6635 5.07812 21.7352 5.26325 21.7819C5.64196 21.8774 6.10169 21.927 6.53799 21.9559C7.01695 21.9877 7.53592 21.998 7.99999 22.0008C8.00033 22.5527 8.44791 23.0001 8.99998 23.0001C9.55227 23.0001 9.99998 22.5524 9.99998 22.0001V21.0001C9.99998 20.4478 9.55227 20.0001 8.99998 20.0001C8.90571 20.0001 8.80372 20.0004 8.69569 20.0008C8.10883 20.0026 7.34388 20.0049 6.67018 19.9603C6.34531 19.9388 6.07825 19.9083 5.88241 19.871C5.58083 18.6871 5.09362 17.8994 4.57373 17.2891C4.34391 17.0194 4.10593 16.7834 3.91236 16.5914C3.87612 16.5555 3.84144 16.5211 3.80865 16.4883C3.5853 16.265 3.4392 16.1062 3.33203 15.9454Z" fill="#0F0F0F"></path>
    </g>
  </symbol>

  <symbol xmlns="http://www.w3.org/2000/svg" viewBox="0 0 48 48" id="icons8-telegram">
    <path d="M39.175,10.016c1.687,0,2.131,1.276,1.632,4.272c-0.571,3.426-2.216,14.769-3.528,21.83 c-0.502,2.702-1.407,3.867-2.724,3.867c-0.724,0-1.572-0.352-2.546-0.995c-1.32-0.872-7.984-5.279-9.431-6.314 c-1.32-0.943-3.141-2.078-0.857-4.312c0.813-0.796,6.14-5.883,10.29-9.842c0.443-0.423,0.072-1.068-0.42-1.068 c-0.112,0-0.231,0.034-0.347,0.111c-5.594,3.71-13.351,8.859-14.338,9.53c-0.987,0.67-1.949,1.1-3.231,1.1 c-0.655,0-1.394-0.112-2.263-0.362c-1.943-0.558-3.84-1.223-4.579-1.477c-2.845-0.976-2.17-2.241,0.593-3.457 c11.078-4.873,25.413-10.815,27.392-11.637C36.746,10.461,38.178,10.016,39.175,10.016 M39.175,7.016L39.175,7.016 c-1.368,0-3.015,0.441-5.506,1.474L33.37,8.614C22.735,13.03,13.092,17.128,6.218,20.152c-1.074,0.473-4.341,1.91-4.214,4.916 c0.054,1.297,0.768,3.065,3.856,4.124l0.228,0.078c0.862,0.297,2.657,0.916,4.497,1.445c1.12,0.322,2.132,0.478,3.091,0.478 c1.664,0,2.953-0.475,3.961-1.028c-0.005,0.168-0.001,0.337,0.012,0.507c0.182,2.312,1.97,3.58,3.038,4.338l0.149,0.106 c1.577,1.128,8.714,5.843,9.522,6.376c1.521,1.004,2.894,1.491,4.199,1.491c2.052,0,4.703-1.096,5.673-6.318 c0.921-4.953,1.985-11.872,2.762-16.924c0.331-2.156,0.603-3.924,0.776-4.961c0.349-2.094,0.509-4.466-0.948-6.185 C42.208,7.875,41.08,7.016,39.175,7.016L39.175,7.016z"></path>
  </symbol>
</svg>